<svg version="1.0" xmlns="http://www.w3.org/2000/svg"
 width="1440.000000pt" height="1440.000000pt" viewBox="0 0 1440.000000 1440.000000"
 preserveAspectRatio="xMidYMid meet">
   <g transform="translate(0.000000,1440.000000) scale(0.100000,-0.100000)"
    fill="#fff" stroke="none">
        <path d="M10428 748 c-2 -22 -8 -32 -17 -30 -17 4 -31 -15 -31 -42 0 -12 5
        -16 14 -13 8 3 17 -1 20 -9 3 -8 12 -14 21 -14 8 0 15 -4 15 -10 0 -5 15 -10
        34 -10 32 0 34 2 40 46 6 48 -7 70 -62 102 -30 17 -30 16 -34 -20z"/>
    </g>
</svg>
